{
  "asset": {
    "generator": "glTF-Transform v4.2.1",
    "version": "2.0"
  },
  "accessors": [
    {
      "type": "SCALAR",
      "componentType": 5125,
      "count": 790875,
      "normalized": false,
      "byteOffset": 0,
      "bufferView": 0
    },
    {
      "type": "VEC3",
      "componentType": 5120,
      "count": 649681,
      "normalized": true,
      "byteOffset": 0,
      "bufferView": 1
    },
    {
      "type": "VEC3",
      "componentType": 5122,
      "count": 649681,
      "max": [
        32767,
        24574,
        300
      ],
      "min": [
        -32767,
        -24574,
        -300
      ],
      "normalized": true,
      "byteOffset": 0,
      "bufferView": 2
    },
    {
      "type": "VEC2",
      "componentType": 5123,
      "count": 649681,
      "normalized": true,
      "byteOffset": 0,
      "bufferView": 3
    }
  ],
  "bufferViews": [
    {
      "buffer": 1,
      "byteOffset": 0,
      "byteLength": 3163500,
      "target": 34963,
      "extensions": {
        "EXT_meshopt_compression": {
          "buffer": 0,
          "byteOffset": 0,
          "byteLength": 265720,
          "mode": "TRIANGLES",
          "byteStride": 4,
          "count": 790875
        }
      }
    },
    {
      "buffer": 1,
      "byteOffset": 3163500,
      "byteLength": 2598724,
      "target": 34962,
      "byteStride": 4,
      "extensions": {
        "EXT_meshopt_compression": {
          "buffer": 0,
          "byteOffset": 265720,
          "byteLength": 529589,
          "mode": "ATTRIBUTES",
          "filter": "OCTAHEDRAL",
          "byteStride": 4,
          "count": 649681
        }
      }
    },
    {
      "buffer": 1,
      "byteOffset": 5762224,
      "byteLength": 5197448,
      "target": 34962,
      "byteStride": 8,
      "extensions": {
        "EXT_meshopt_compression": {
          "buffer": 0,
          "byteOffset": 795312,
          "byteLength": 1912788,
          "mode": "ATTRIBUTES",
          "byteStride": 8,
          "count": 649681
        }
      }
    },
    {
      "buffer": 1,
      "byteOffset": 10959672,
      "byteLength": 2598724,
      "target": 34962,
      "byteStride": 4,
      "extensions": {
        "EXT_meshopt_compression": {
          "buffer": 0,
          "byteOffset": 2708100,
          "byteLength": 2053366,
          "mode": "ATTRIBUTES",
          "byteStride": 4,
          "count": 649681
        }
      }
    }
  ],
  "samplers": [
    {
      "magFilter": 9729,
      "minFilter": 9987,
      "wrapS": 10497,
      "wrapT": 10497
    }
  ],
  "textures": [
    {
      "source": 0,
      "sampler": 0
    }
  ],
  "images": [
    {
      "name": "worldmap_texture",
      "mimeType": "image/png",
      "uri": "baseColor.png"
    }
  ],
  "buffers": [
    {
      "uri": "editedworldmap.bin",
      "byteLength": 4761468
    },
    {
      "byteLength": 13558396,
      "extensions": {
        "EXT_meshopt_compression": {
          "fallback": true
        }
      }
    }
  ],
  "materials": [
    {
      "name": "worldmap_material.765",
      "doubleSided": true,
      "pbrMetallicRoughness": {
        "metallicFactor": 0,
        "baseColorTexture": {
          "index": 0
        }
      },
      "extensions": {
        "KHR_materials_specular": {
          "specularFactor": 0
        }
      }
    }
  ],
  "meshes": [
    {
      "name": "worldmap_segment_0765",
      "primitives": [
        {
          "attributes": {
            "NORMAL": 1,
            "POSITION": 2,
            "TEXCOORD_0": 3
          },
          "mode": 4,
          "material": 0,
          "indices": 0
        }
      ]
    }
  ],
  "nodes": [
    {
      "name": "worldmap_segment_0765",
      "translation": [
        -0.014507949352264404,
        0.003269365141799038,
        0.0058845587514401426
      ],
      "rotation": [
        0.7071068882942236,
        0,
        0,
        0.7071066740788552
      ],
      "scale": [
        0.5,
        0.49999998288573777,
        0.49999998288573777
      ],
      "mesh": 0
    }
  ],
  "scenes": [
    {
      "name": "Scene",
      "nodes": [
        0
      ]
    }
  ],
  "scene": 0,
  "extensionsUsed": [
    "EXT_meshopt_compression",
    "KHR_materials_specular",
    "KHR_mesh_quantization"
  ],
  "extensionsRequired": [
    "EXT_meshopt_compression",
    "KHR_mesh_quantization"
  ]
}